<mxfile host="app.diagrams.net" modified="2020-10-19T02:06:36.787Z" agent="5.0 (Macintosh; Intel Mac OS X 10_15_6) AppleWebKit/537.36 (KHTML, like Gecko) Chrome/86.0.4240.80 Safari/537.36" etag="3LL48jBJiZIEgGNNgoRL" version="13.8.0" type="github">
  <diagram name="Page-1" id="efa7a0a1-bf9b-a30e-e6df-94a7791c09e9">
    <mxGraphModel dx="1491" dy="1677" grid="1" gridSize="10" guides="1" tooltips="1" connect="1" arrows="1" fold="1" page="1" pageScale="1" pageWidth="826" pageHeight="1169" background="#ffffff" math="0" shadow="0">
      <root>
        <mxCell id="0" />
        <mxCell id="1" parent="0" />
        <mxCell id="5MHF5q6WEzzrNffTlIEm-114" value="" style="edgeStyle=orthogonalEdgeStyle;rounded=0;orthogonalLoop=1;jettySize=auto;html=1;startArrow=ERone;startFill=0;endArrow=ERmany;endFill=0;strokeWidth=3;" edge="1" parent="1" source="19" target="25">
          <mxGeometry relative="1" as="geometry" />
        </mxCell>
        <mxCell id="19" value="&lt;p style=&quot;margin: 0px ; margin-top: 4px ; text-align: center ; text-decoration: underline&quot;&gt;&lt;b&gt;User&lt;/b&gt;&lt;/p&gt;&lt;hr&gt;&lt;p style=&quot;margin: 0px 0px 0px 8px&quot;&gt;Id&lt;/p&gt;&lt;p style=&quot;margin: 0px 0px 0px 8px&quot;&gt;username&lt;/p&gt;&lt;p style=&quot;margin: 0px 0px 0px 8px&quot;&gt;email&lt;/p&gt;&lt;p style=&quot;margin: 0px 0px 0px 8px&quot;&gt;password_digest&lt;/p&gt;&lt;p style=&quot;margin: 0px 0px 0px 8px&quot;&gt;posts&lt;/p&gt;" style="verticalAlign=top;align=left;overflow=fill;fontSize=12;fontFamily=Helvetica;html=1;strokeColor=#003366;shadow=1;fillColor=#D4E1F5;fontColor=#003366" parent="1" vertex="1">
          <mxGeometry x="-20" y="-130" width="240" height="141.64" as="geometry" />
        </mxCell>
        <mxCell id="21" value="&lt;p style=&quot;margin: 4px 0px 0px ; text-align: center&quot;&gt;&lt;strong&gt;Comments&lt;/strong&gt;&lt;/p&gt;&lt;hr&gt;&lt;p style=&quot;margin: 0px 0px 0px 8px&quot;&gt;Id&lt;/p&gt;&lt;p style=&quot;margin: 0px 0px 0px 8px&quot;&gt;user_id&lt;/p&gt;&lt;p style=&quot;margin: 0px 0px 0px 8px&quot;&gt;context&lt;/p&gt;&lt;p style=&quot;margin: 0px 0px 0px 8px&quot;&gt;posts_id&lt;/p&gt;&lt;p style=&quot;margin: 0px 0px 0px 8px&quot;&gt;likes_id&lt;/p&gt;&lt;p style=&quot;margin: 0px 0px 0px 8px&quot;&gt;created_at&lt;/p&gt;&lt;p style=&quot;margin: 0px 0px 0px 8px&quot;&gt;updated_at&lt;/p&gt;&lt;p style=&quot;margin: 0px 0px 0px 8px&quot;&gt;&lt;br&gt;&lt;/p&gt;&lt;p style=&quot;margin: 0px ; margin-top: 4px ; text-align: center ; text-decoration: underline&quot;&gt;&lt;b&gt;&lt;br&gt;&lt;/b&gt;&lt;/p&gt;" style="verticalAlign=top;align=left;overflow=fill;fontSize=12;fontFamily=Helvetica;html=1;strokeColor=#003366;shadow=1;fillColor=#D4E1F5;fontColor=#003366" parent="1" vertex="1">
          <mxGeometry x="520" y="169.99999999999983" width="160" height="160" as="geometry" />
        </mxCell>
        <mxCell id="5MHF5q6WEzzrNffTlIEm-116" value="" style="orthogonalLoop=1;jettySize=auto;html=1;endArrow=ERmany;endFill=0;startArrow=ERone;startFill=0;rounded=0;strokeWidth=3;edgeStyle=orthogonalEdgeStyle;" edge="1" parent="1" source="25" target="21">
          <mxGeometry relative="1" as="geometry">
            <Array as="points">
              <mxPoint x="365" y="350" />
              <mxPoint x="365" y="390" />
            </Array>
          </mxGeometry>
        </mxCell>
        <mxCell id="25" value="&lt;p style=&quot;margin: 4px 0px 0px ; text-align: center&quot;&gt;&lt;strong&gt;Posts&lt;/strong&gt;&lt;/p&gt;&lt;hr&gt;&lt;p style=&quot;margin: 0px 0px 0px 8px&quot;&gt;Id&lt;/p&gt;&lt;p style=&quot;margin: 0px 0px 0px 8px&quot;&gt;user_id&lt;/p&gt;&lt;p style=&quot;margin: 0px 0px 0px 8px&quot;&gt;context&lt;/p&gt;&lt;p style=&quot;margin: 0px 0px 0px 8px&quot;&gt;posts_id&lt;/p&gt;&lt;p style=&quot;margin: 0px 0px 0px 8px&quot;&gt;comments_id&lt;/p&gt;&lt;p style=&quot;margin: 0px 0px 0px 8px&quot;&gt;likes_id&lt;/p&gt;&lt;p style=&quot;margin: 0px 0px 0px 8px&quot;&gt;created_at&lt;/p&gt;&lt;p style=&quot;margin: 0px 0px 0px 8px&quot;&gt;updated_at&lt;/p&gt;&lt;p style=&quot;margin: 0px 0px 0px 8px&quot;&gt;&lt;br&gt;&lt;/p&gt;" style="verticalAlign=top;align=left;overflow=fill;fontSize=12;fontFamily=Helvetica;html=1;strokeColor=#003366;shadow=1;fillColor=#D4E1F5;fontColor=#003366" parent="1" vertex="1">
          <mxGeometry x="20" y="200" width="160" height="160" as="geometry" />
        </mxCell>
        <mxCell id="5MHF5q6WEzzrNffTlIEm-118" value="" style="endArrow=ERone;startArrow=ERmany;html=1;strokeWidth=3;exitX=0.563;exitY=-0.019;exitDx=0;exitDy=0;exitPerimeter=0;edgeStyle=orthogonalEdgeStyle;startFill=0;endFill=0;" edge="1" parent="1" source="21" target="19">
          <mxGeometry width="50" height="50" relative="1" as="geometry">
            <mxPoint x="340" y="180" as="sourcePoint" />
            <mxPoint x="390" y="130" as="targetPoint" />
            <Array as="points">
              <mxPoint x="610" y="157" />
              <mxPoint x="610" y="30" />
              <mxPoint x="350" y="30" />
              <mxPoint x="350" y="-29" />
            </Array>
          </mxGeometry>
        </mxCell>
      </root>
    </mxGraphModel>
  </diagram>
</mxfile>
